# xmcd CD database file
#
# Track frame offsets:
#	150
#	22741
#	42423
#	57877
#	75306
#	100550
#	123529
#	152828
#	170848
#	196376
#	211744
#
# Disc length: 3139 seconds
#
# Revision: 0
# Processed by: cddbd v1.5.1PL0 Copyright (c) Steve Scherf et al.
# Submitted via: CDex 1.51
#
DISCID=840c410b
DTITLE=Talking Heads - Naked
DYEAR=1988
DGENRE=New Age
TTITLE0=Blind
TTITLE1=Mr Jones
TTITLE2=Totally Blind
TTITLE3=Ruby Dear
TTITLE4=Nothing But) Flowers)
TTITLE5=The Democratic Circus
TTITLE6=The Facts Of Life
TTITLE7=Mommy, Daddy You And I
TTITLE8=Big Daddy
TTITLE9=Bill
TTITLE10=Cool Water
EXTD=YEAR: 1988
EXTT0=
EXTT1=
EXTT2=
EXTT3=
EXTT4=
EXTT5=
EXTT6=
EXTT7=
EXTT8=
EXTT9=
EXTT10=
PLAYORDER=
